<?xml version="1.0" standalone="no"?>
<!DOCTYPE svg PUBLIC "-//W3C//DTD SVG 20010904//EN"
 "http://www.w3.org/TR/2001/REC-SVG-20010904/DTD/svg10.dtd">
<svg version="1.0" xmlns="http://www.w3.org/2000/svg"
 width="2425.000000pt" height="2425.000000pt" viewBox="0 0 2425.000000 2425.000000"
 preserveAspectRatio="xMidYMid meet">

<g transform="translate(0.000000,2425.000000) scale(0.100000,-0.100000)"
fill="#000000" stroke="none">
<path d="M11725 24233 c-1352 -52 -2580 -293 -3802 -744 -2575 -950 -4767
-2768 -6189 -5132 -234 -389 -524 -947 -699 -1347 -613 -1397 -945 -2828
-1016 -4380 -13 -283 -7 -997 11 -1250 81 -1179 296 -2245 662 -3280 991
-2803 2952 -5124 5558 -6579 224 -125 774 -399 995 -495 1886 -821 3881 -1151
5910 -980 2443 206 4749 1141 6650 2697 1310 1072 2390 2419 3150 3927 699
1388 1114 2856 1249 4415 56 639 56 1409 0 2070 -129 1542 -551 3030 -1254
4424 -482 955 -1067 1813 -1796 2631 -167 188 -595 622 -799 810 -1513 1398
-3346 2385 -5330 2870 -967 237 -1961 355 -2940 348 -159 -1 -321 -3 -360 -5z
m1245 -197 c113 -8 228 -18 255 -21 632 -66 1022 -128 1525 -240 2502 -559
4766 -1923 6450 -3885 1561 -1819 2538 -4067 2799 -6440 57 -517 75 -905 68
-1483 -9 -807 -74 -1430 -227 -2199 -418 -2094 -1385 -4018 -2831 -5634 -183
-205 -688 -710 -894 -894 -450 -403 -884 -738 -1390 -1075 -1709 -1135 -3642
-1797 -5705 -1955 -567 -43 -1261 -41 -1850 6 -3977 314 -7535 2607 -9490
6114 -1144 2051 -1652 4425 -1454 6795 197 2363 1094 4611 2576 6457 499 621
1062 1197 1657 1694 1098 918 2319 1618 3656 2097 1032 369 2167 602 3255 667
96 6 200 12 230 14 158 10 1180 -3 1370 -18z"/>
<path d="M11625 23809 c-1044 -45 -2116 -239 -3102 -560 -2186 -712 -4096
-2040 -5538 -3849 -1431 -1794 -2298 -3982 -2489 -6275 -31 -370 -39 -628 -33
-1122 5 -475 10 -584 43 -938 175 -1933 845 -3810 1935 -5425 617 -916 1374
-1752 2229 -2465 693 -577 1466 -1080 2285 -1485 1476 -731 3016 -1124 4695
-1201 440 -20 1079 -5 1545 36 2628 234 5114 1362 7015 3183 664 637 1178
1249 1675 1997 1073 1614 1718 3443 1894 5370 38 408 45 593 45 1075 0 481 -8
672 -45 1075 -245 2681 -1408 5181 -3304 7104 -894 907 -1883 1634 -3000 2207
-1803 924 -3814 1361 -5850 1273z m1105 -179 c2525 -137 4871 -1055 6790
-2658 358 -299 802 -722 1109 -1057 1673 -1827 2703 -4106 2960 -6550 74 -699
83 -1455 25 -2165 -192 -2392 -1145 -4676 -2713 -6510 -1502 -1757 -3495
-3022 -5713 -3629 -2163 -592 -4500 -536 -6625 160 -1533 502 -2910 1299
-4129 2390 -342 306 -831 814 -1142 1188 -1417 1697 -2310 3760 -2576 5951
-108 880 -113 1784 -16 2670 198 1801 828 3543 1830 5054 1639 2472 4142 4213
7010 4875 666 154 1409 256 2065 284 184 8 961 6 1125 -3z"/>
<path d="M11905 23028 c-391 -39 -795 -199 -1129 -446 -184 -137 -440 -414
-542 -587 -25 -43 -25 -44 -92 -49 -301 -25 -451 -52 -647 -118 -137 -45 -361
-150 -483 -226 -259 -161 -502 -396 -673 -649 l-50 -73 -97 0 c-460 0 -972
-188 -1367 -500 -170 -134 -374 -364 -489 -550 l-46 -76 -118 -12 c-396 -43
-786 -196 -1113 -438 -184 -136 -414 -382 -545 -584 l-30 -45 -139 -6 c-570
-27 -1115 -277 -1519 -699 -375 -392 -585 -889 -603 -1430 -12 -354 52 -677
195 -983 l46 -98 -56 -107 c-119 -227 -201 -485 -232 -730 -18 -141 -21 -406
-6 -532 31 -253 105 -498 219 -725 l76 -150 -72 -144 c-154 -307 -225 -617
-225 -971 1 -348 75 -663 227 -966 l60 -121 -61 -127 c-102 -208 -173 -446
-205 -686 -19 -135 -15 -439 6 -575 38 -251 108 -466 225 -694 l70 -137 -73
-145 c-202 -401 -277 -862 -212 -1301 152 -1021 1016 -1813 2059 -1886 l99 -7
68 -100 c405 -596 1057 -959 1785 -992 l141 -6 33 -55 c58 -97 182 -254 285
-361 374 -388 883 -631 1428 -683 l127 -12 27 -45 c94 -164 300 -401 476 -548
334 -279 750 -456 1193 -508 71 -8 164 -15 206 -15 l77 0 27 -37 c100 -136
149 -197 228 -280 370 -391 881 -639 1431 -694 158 -16 434 -6 590 20 621 105
1179 461 1509 962 l37 56 128 6 c669 34 1295 369 1696 908 40 53 88 123 108
156 l37 60 132 12 c444 41 836 190 1184 452 183 138 386 351 511 540 l45 67
86 7 c738 56 1358 413 1754 1010 44 66 87 123 96 127 9 4 41 7 71 7 85 1 254
29 402 66 557 138 1060 505 1362 992 393 637 434 1433 107 2100 l-67 137 58
120 c230 477 278 1033 133 1539 -39 135 -108 309 -165 415 l-39 73 70 142
c155 317 224 612 224 962 0 373 -82 701 -257 1030 l-54 100 63 130 c139 285
214 615 214 935 0 300 -62 591 -187 882 l-55 127 81 163 c109 222 161 379 206
623 23 121 31 459 16 596 -48 411 -218 817 -478 1139 -91 113 -284 296 -407
387 -312 232 -671 375 -1069 428 -65 8 -155 15 -200 15 l-82 0 -73 111 c-224
337 -529 603 -897 780 -267 129 -471 183 -849 226 l-68 8 -59 94 c-215 342
-536 630 -904 811 -276 136 -568 212 -905 235 l-95 7 -42 61 c-169 249 -438
499 -700 654 -293 172 -637 283 -961 309 l-82 7 -66 101 c-466 713 -1287 1101
-2149 1014z m505 -179 c348 -40 712 -185 998 -398 162 -121 328 -290 443 -451
l61 -85 -90 -6 c-640 -46 -1259 -382 -1637 -887 l-67 -91 -57 79 c-344 481
-890 816 -1476 905 -60 9 -125 20 -143 23 l-34 7 63 85 c75 101 245 279 346
362 167 136 409 274 613 348 302 110 640 148 980 109z m-2310 -1087 c0 -4 -16
-45 -35 -90 -74 -176 -130 -389 -155 -594 -18 -146 -8 -493 19 -633 22 -117
64 -273 100 -371 l22 -59 -32 40 c-18 22 -74 82 -124 134 -343 356 -794 591
-1280 666 -60 10 -112 19 -114 21 -6 6 131 176 204 253 324 341 801 575 1285
630 105 12 110 12 110 3z m480 -23 c511 -84 996 -376 1307 -789 l65 -85 -119
-12 c-441 -46 -824 -197 -1177 -466 -99 -76 -267 -237 -343 -329 l-58 -71 -23
54 c-41 92 -99 279 -121 389 -85 430 -34 855 151 1252 l42 90 75 -6 c42 -4
132 -16 201 -27z m3471 -84 c247 -527 236 -1176 -29 -1714 -55 -112 -56 -114
-71 -91 -356 537 -938 900 -1592 993 l-81 12 53 70 c76 102 320 340 424 414
358 252 775 395 1173 400 l83 1 40 -85z m301 55 c198 -34 429 -109 600 -196
244 -124 503 -335 678 -552 l70 -87 -27 -6 c-16 -4 -71 -12 -123 -19 -399 -51
-850 -259 -1162 -536 -27 -24 -50 -44 -52 -44 -2 0 5 35 15 78 54 222 68 542
35 777 -23 159 -75 359 -130 495 -29 74 -40 110 -31 110 7 0 64 -9 127 -20z
m-6165 -1012 c-110 -257 -159 -413 -191 -599 -37 -215 -37 -512 -1 -724 16
-93 54 -253 71 -300 4 -11 -33 19 -83 67 -330 316 -771 525 -1248 593 -55 8
-127 15 -161 15 -33 0 -63 3 -67 6 -17 18 176 257 305 379 364 344 837 544
1357 574 15 1 21 -3 18 -11z m387 -14 c356 -55 687 -196 971 -413 82 -62 265
-241 334 -326 63 -77 161 -214 161 -225 0 -4 -56 -14 -124 -24 -427 -56 -836
-237 -1167 -514 -108 -91 -244 -231 -316 -327 -26 -35 -51 -64 -54 -65 -3 0
-24 39 -47 88 -217 467 -250 986 -95 1467 37 116 101 267 135 323 24 38 47 40
202 16z m7293 -91 c192 -383 254 -842 172 -1271 -21 -108 -92 -337 -132 -425
l-22 -48 -71 88 c-199 246 -465 453 -770 600 -259 124 -489 185 -838 221 l-69
7 75 100 c257 339 598 587 1001 724 178 61 438 111 557 107 l45 -1 52 -102z
m388 76 c523 -87 1002 -382 1324 -815 45 -60 81 -112 81 -116 0 -10 -23 -14
-149 -27 -457 -48 -936 -271 -1278 -594 -48 -46 -83 -73 -80 -62 56 185 87
374 94 576 12 340 -49 652 -187 962 l-48 107 67 -6 c36 -3 116 -14 176 -25z
m-4288 9 c-3 -7 -26 -61 -50 -120 -187 -440 -226 -927 -112 -1376 13 -55 28
-108 32 -118 3 -10 -36 20 -88 66 -355 314 -762 503 -1215 565 -128 18 -131
19 -170 91 l-17 31 49 64 c65 86 221 247 315 325 324 271 758 445 1189 477 25
2 51 4 59 5 7 1 11 -4 8 -10z m511 -34 c409 -81 811 -303 1099 -607 98 -105
227 -273 218 -287 -3 -5 -20 -10 -37 -10 -56 0 -280 -50 -407 -92 -362 -118
-714 -340 -951 -601 -23 -26 -44 -46 -46 -44 -2 1 10 44 26 95 34 108 64 251
81 377 15 116 15 406 0 515 -30 219 -94 454 -170 622 l-30 67 47 -5 c26 -3
103 -17 170 -30z m-304 -212 c155 -408 166 -907 28 -1319 -38 -111 -92 -243
-101 -243 -8 0 -72 162 -100 255 -52 169 -72 302 -78 512 -6 214 3 323 39 493
24 115 74 269 119 368 32 73 33 74 46 48 8 -14 29 -65 47 -114z m2075 -857
c291 -18 651 -136 911 -298 122 -76 255 -180 359 -281 148 -145 284 -317 265
-336 -5 -5 -69 -16 -143 -25 -538 -62 -1008 -294 -1383 -683 -54 -55 -98 -99
-98 -97 0 3 11 33 24 67 33 90 82 285 102 413 22 136 25 466 5 600 -33 228
-82 396 -188 642 -4 9 3 12 23 8 16 -2 71 -7 123 -10z m-7489 -20 c559 -93
1043 -391 1368 -841 30 -41 53 -76 51 -78 -2 -1 -60 -8 -129 -14 -461 -45
-891 -223 -1250 -521 -111 -92 -243 -228 -317 -326 -26 -35 -51 -64 -55 -65
-22 -1 -145 297 -182 442 -52 202 -60 268 -60 518 -1 202 2 251 22 352 29 152
80 321 139 454 l46 107 136 -6 c75 -4 179 -13 231 -22z m-570 10 c0 -2 -13
-37 -29 -77 -173 -438 -205 -907 -91 -1353 15 -60 31 -119 36 -130 4 -11 -24
10 -62 46 -344 326 -798 543 -1263 603 l-93 11 62 85 c35 47 115 138 179 203
312 319 689 517 1136 597 112 20 125 22 125 15z m7583 -10 c-21 -37 -172 -192
-261 -266 -288 -241 -619 -397 -985 -464 -49 -9 -91 -15 -93 -12 -2 2 27 39
65 83 243 278 617 509 996 614 63 18 233 54 278 59 4 1 4 -6 0 -14z m4040
-112 c99 -234 146 -452 154 -713 11 -326 -50 -630 -183 -909 -37 -80 -47 -92
-57 -80 -8 8 -43 50 -79 94 -135 165 -323 331 -520 459 -264 172 -673 316
-968 341 -41 4 -81 8 -88 11 -35 11 248 327 401 447 352 278 812 451 1209 456
l86 1 45 -107z m262 92 c205 -22 482 -110 690 -218 204 -107 368 -231 535
-403 102 -105 239 -277 240 -300 0 -7 -29 -14 -70 -18 -208 -19 -503 -107
-726 -215 -300 -147 -550 -347 -782 -626 l-33 -40 19 40 c76 159 146 398 178
605 21 140 24 432 5 570 -25 188 -78 389 -150 568 l-21 54 27 -6 c16 -2 55 -8
88 -11z m-8095 -8 c0 -1 -16 -42 -35 -91 -49 -125 -90 -272 -117 -422 -20
-111 -23 -162 -23 -364 1 -200 4 -254 24 -364 19 -108 58 -261 87 -341 4 -11
-28 14 -72 56 -363 348 -820 559 -1341 621 -21 3 -18 10 40 88 259 350 656
623 1082 747 124 35 355 82 355 70z m762 -51 c302 -78 568 -212 813 -411 95
-77 251 -232 243 -241 -3 -2 -50 5 -104 17 -282 61 -567 191 -801 365 -108 81
-248 207 -293 264 -29 37 -30 40 -11 40 11 0 80 -15 153 -34z m-544 -73 c189
-493 185 -1021 -12 -1497 -38 -92 -34 -95 -89 54 -150 403 -163 859 -36 1275
37 119 88 245 99 245 5 0 22 -35 38 -77z m349 -129 c240 -239 552 -431 870
-537 l133 -45 -98 -22 c-323 -75 -657 -240 -917 -453 -44 -36 -81 -65 -82 -64
-1 1 5 29 12 62 45 194 58 515 30 732 -23 171 -74 374 -131 518 -4 11 17 -9
46 -45 30 -36 92 -102 137 -146z m3463 69 c82 -228 110 -378 117 -633 6 -232
-7 -360 -56 -553 -34 -132 -84 -272 -97 -272 -5 0 -30 63 -56 140 -146 436
-141 893 14 1323 16 45 34 82 38 82 4 0 22 -39 40 -87z m-321 -203 c-49 -210
-63 -527 -34 -757 23 -176 70 -356 141 -538 4 -11 -26 21 -68 70 -288 343
-654 585 -1090 721 l-57 17 127 33 c175 44 283 84 448 164 162 78 344 197 459
298 44 39 83 71 86 71 4 1 -2 -35 -12 -79z m-1811 -637 c-49 -69 -241 -265
-327 -335 -242 -195 -535 -340 -834 -413 -114 -28 -336 -58 -392 -53 l-39 3
48 60 c233 290 564 530 910 659 183 69 441 123 594 125 l73 1 -33 -47z m623
-13 c281 -69 573 -215 800 -398 88 -71 299 -287 348 -356 l34 -48 -44 7 c-92
15 -309 75 -400 111 -279 110 -526 270 -730 473 -76 77 -209 234 -209 248 0 8
75 -6 201 -37z m-8142 -57 c-72 -162 -133 -370 -165 -568 -22 -134 -25 -474
-6 -610 27 -187 81 -379 159 -568 25 -59 43 -113 40 -121 -4 -9 -37 -15 -109
-20 -643 -43 -1221 -334 -1621 -819 l-81 -98 -24 53 c-115 259 -176 626 -152
914 23 288 82 507 201 749 107 218 234 390 423 572 229 221 486 376 792 478
157 52 389 96 546 104 l27 1 -30 -67z m396 47 c340 -41 705 -191 993 -407 133
-101 402 -375 402 -410 0 -6 -34 -13 -76 -16 -121 -11 -318 -54 -466 -103
-394 -131 -752 -374 -1016 -689 -41 -49 -78 -91 -82 -93 -18 -7 -101 261 -137
443 -26 131 -26 538 1 680 27 147 77 314 136 450 69 163 72 166 118 160 20 -2
78 -9 127 -15z m3422 -32 c-128 -290 -186 -515 -208 -802 -17 -229 14 -522 77
-738 3 -9 -41 29 -98 86 -252 251 -562 443 -890 551 -131 43 -357 95 -411 95
-41 0 -40 14 5 66 361 424 869 692 1408 742 52 5 101 10 109 11 7 0 11 -5 8
-11z m7452 -5 c-221 -284 -602 -549 -956 -666 -147 -48 -413 -106 -413 -89 0
13 147 171 226 243 289 264 651 441 1044 513 109 20 115 20 99 -1z m713 -14
c306 -63 644 -225 891 -427 151 -124 422 -431 400 -453 -4 -4 -46 -13 -93 -19
-466 -62 -925 -278 -1257 -593 -40 -38 -73 -66 -73 -63 0 4 11 46 25 94 56
198 70 308 70 572 0 192 -4 269 -18 354 -24 142 -75 327 -126 455 -23 57 -41
106 -41 108 0 9 111 -5 222 -28z m3345 -79 c51 -101 116 -298 142 -431 84
-412 34 -849 -139 -1233 -18 -39 -24 -46 -34 -35 -7 8 -42 50 -78 95 -135 164
-342 343 -539 465 -259 161 -602 282 -909 320 -52 6 -97 13 -99 15 -6 5 121
163 194 242 137 147 363 317 554 416 197 102 441 180 657 210 110 16 181 23
199 21 6 0 29 -39 52 -85z m288 75 c44 -3 125 -15 180 -26 640 -129 1167 -525
1458 -1096 94 -186 155 -372 193 -598 22 -125 24 -439 5 -575 -17 -122 -70
-333 -111 -435 -39 -101 -111 -255 -119 -255 -3 0 -20 22 -38 49 -60 93 -191
247 -287 339 -372 355 -845 573 -1351 623 -66 7 -121 13 -123 14 -1 1 20 49
47 106 263 560 287 1161 69 1729 -56 147 -55 142 -27 136 13 -3 60 -8 104 -11z
m-11040 -76 c207 -68 428 -184 607 -320 108 -82 325 -293 305 -297 -22 -5
-217 45 -331 85 -191 66 -405 181 -576 311 -76 58 -310 278 -310 292 0 12 174
-28 305 -71z m7095 -157 c128 -369 142 -777 39 -1161 -31 -117 -83 -259 -127
-346 l-25 -50 -34 70 c-45 93 -107 286 -132 410 -45 224 -52 498 -16 715 31
186 101 413 173 555 l25 50 29 -65 c16 -36 47 -116 68 -178z m-7675 116 c169
-417 196 -889 74 -1308 -17 -58 -49 -152 -71 -209 l-41 -104 -19 38 c-11 21
-37 90 -58 154 -125 382 -133 786 -24 1175 29 104 103 296 114 296 4 0 16 -19
25 -42z m3815 -95 c134 -372 164 -739 89 -1108 -22 -108 -94 -341 -109 -350
-9 -6 -57 113 -89 221 -101 343 -108 716 -21 1060 33 132 78 264 90 264 5 0
22 -39 40 -87z m-260 12 c-68 -197 -104 -432 -104 -675 1 -274 35 -481 123
-730 l40 -115 -36 45 c-67 82 -247 261 -328 327 -126 102 -278 199 -430 273
-163 80 -270 119 -450 165 -108 28 -125 34 -100 40 17 3 92 22 167 40 392 97
765 312 1058 609 41 42 75 76 77 76 1 0 -7 -25 -17 -55z m-3065 -245 c240
-181 512 -311 805 -386 74 -19 136 -36 137 -38 2 -1 -30 -9 -69 -16 -343 -60
-726 -243 -1013 -483 -49 -42 -91 -74 -92 -73 -1 1 9 54 22 119 67 333 56 715
-31 1014 -13 46 -24 86 -24 89 0 3 39 -31 88 -76 48 -45 128 -113 177 -150z
m6774 138 c-52 -174 -80 -376 -80 -594 0 -209 23 -401 68 -563 5 -18 -21 0
-101 71 -250 223 -500 368 -824 474 l-143 47 113 34 c351 107 643 276 918 532
36 33 66 60 67 61 0 0 -7 -28 -18 -62z m-3137 -55 c225 -203 497 -357 818
-464 80 -26 136 -48 125 -49 -45 -1 -328 -105 -451 -165 -146 -71 -360 -210
-474 -309 -41 -35 -76 -63 -77 -62 -1 1 7 51 19 111 19 95 22 146 22 375 1
283 -6 345 -59 548 -14 52 -25 96 -25 99 0 7 21 -11 102 -84z m-6208 -582 c3
-5 -21 -64 -54 -132 -134 -278 -210 -615 -210 -929 0 -166 32 -410 76 -580 5
-19 -18 -1 -92 70 -127 122 -173 160 -314 256 -279 188 -634 321 -977 365 -66
8 -93 16 -98 27 -12 31 136 215 291 362 274 261 636 448 1017 525 103 21 183
31 339 44 9 0 19 -3 22 -8z m432 -26 c418 -72 837 -293 1130 -597 67 -69 174
-195 174 -204 0 -17 -254 35 -401 82 -275 88 -506 219 -737 417 -85 73 -224
220 -274 289 -19 28 -19 28 0 28 11 0 59 -7 108 -15z m6934 -120 c-312 -368
-775 -621 -1279 -700 l-44 -7 24 33 c43 61 221 239 313 313 278 225 598 371
956 436 52 9 97 15 99 14 2 -2 -29 -42 -69 -89z m890 34 c366 -97 710 -301
969 -575 51 -54 101 -109 111 -124 l19 -27 -87 14 c-345 54 -690 209 -973 436
-98 79 -264 244 -309 307 l-19 27 87 -14 c48 -7 139 -27 202 -44z m-4678 -6
c-11 -16 -69 -76 -128 -134 -268 -261 -587 -439 -944 -529 -63 -16 -139 -32
-169 -36 l-55 -7 21 29 c35 49 223 226 311 293 245 186 546 323 847 387 143
30 140 30 117 -3z m722 7 c406 -79 779 -276 1072 -567 49 -49 105 -108 123
-132 l35 -44 -50 7 c-498 72 -956 321 -1286 699 -48 55 -49 57 -24 57 14 0 72
-9 130 -20z m-418 -99 c109 -236 163 -445 185 -718 23 -295 -42 -670 -161
-928 l-32 -70 -54 109 c-244 501 -258 1105 -37 1631 42 102 41 102 99 -24z
m7934 89 c395 -49 773 -209 1080 -457 98 -80 260 -247 339 -351 35 -46 61 -85
59 -86 -1 -2 -57 -8 -123 -15 -489 -48 -955 -257 -1319 -592 -39 -35 -67 -56
-63 -46 12 31 45 168 56 232 50 279 42 617 -19 881 -25 108 -74 258 -116 358
-19 44 -34 82 -34 83 0 6 58 3 140 -7z m-3877 -172 c190 -213 462 -411 732
-531 140 -63 344 -130 463 -153 51 -10 92 -21 92 -25 0 -3 -23 -10 -52 -13
-93 -13 -316 -75 -436 -121 -356 -140 -692 -381 -925 -665 l-36 -45 40 105
c94 242 141 504 141 775 0 266 -30 453 -112 695 l-48 145 31 -40 c18 -22 67
-79 110 -127z m3470 105 c-76 -170 -138 -386 -169 -588 -23 -148 -23 -460 0
-606 19 -120 65 -315 96 -403 l20 -60 -37 45 c-78 93 -222 234 -318 312 -269
217 -595 375 -934 451 -62 13 -115 27 -117 29 -3 2 19 7 48 11 266 35 618 173
877 344 181 119 426 343 522 477 18 25 34 45 35 45 2 0 -9 -26 -23 -57z m-298
-44 c-228 -230 -514 -409 -813 -509 -116 -39 -300 -85 -308 -77 -2 2 47 53
108 114 273 265 577 436 953 534 61 15 119 28 130 29 14 0 -5 -25 -70 -91z
m-10961 -76 c99 -268 121 -399 121 -713 0 -264 -11 -351 -71 -557 -29 -101
-103 -293 -113 -293 -10 0 -79 191 -107 297 -43 162 -56 253 -61 449 -8 267
16 445 87 669 38 118 90 245 100 245 4 0 24 -44 44 -97z m7335 -39 c-76 -223
-111 -438 -111 -689 -1 -299 47 -551 158 -830 4 -11 -26 21 -68 70 -313 374
-744 640 -1213 751 l-119 28 109 22 c383 78 732 250 1032 508 61 53 140 128
174 166 34 39 64 69 65 67 2 -2 -10 -43 -27 -93z m4136 -119 c92 -304 108
-660 45 -972 -22 -105 -78 -293 -108 -358 l-19 -40 -41 125 c-115 352 -134
707 -55 1060 24 111 65 244 99 325 l16 39 15 -34 c8 -19 29 -84 48 -145z
m-3875 -100 c68 -339 48 -686 -57 -1010 l-36 -110 -24 73 c-115 362 -110 799
14 1185 l36 112 23 -75 c13 -41 33 -120 44 -175z m-7187 42 c288 -232 580
-365 1012 -462 25 -6 10 -11 -80 -30 -210 -43 -373 -96 -549 -180 -176 -84
-390 -226 -515 -340 -32 -29 -42 -34 -38 -20 34 113 67 376 67 535 0 187 -39
458 -89 618 l-19 62 69 -62 c39 -35 102 -89 142 -121z m3843 -58 c128 -96 238
-163 389 -235 157 -75 267 -115 439 -158 l130 -33 -70 -13 c-355 -66 -728
-238 -1004 -465 -41 -33 -80 -64 -85 -67 -7 -4 -4 27 6 77 53 261 52 567 -2
840 -17 86 -55 225 -76 283 -4 9 36 -23 88 -72 52 -48 135 -119 185 -157z
m-890 133 c-14 -22 -47 -253 -55 -378 -15 -237 8 -469 69 -701 17 -62 30 -115
30 -119 0 -4 -36 28 -80 70 -193 184 -449 344 -727 452 -115 45 -363 114 -410
114 -48 0 -16 11 106 36 347 70 713 244 986 468 80 66 91 74 81 58z m-5523
-699 c-9 -21 -40 -108 -69 -193 -123 -361 -147 -724 -73 -1115 25 -135 101
-367 162 -498 l47 -99 -63 7 c-387 41 -749 181 -1054 408 -185 138 -399 370
-512 554 l-32 52 32 47 c139 202 365 415 594 559 273 172 671 303 953 314 l32
1 -17 -37z m281 -10 c90 -141 292 -360 451 -488 267 -215 541 -348 915 -445
l44 -12 -129 -33 c-326 -83 -623 -231 -880 -438 -101 -81 -294 -280 -364 -374
-30 -40 -57 -73 -61 -73 -11 0 -104 194 -143 300 -84 226 -119 431 -119 690 0
306 44 520 168 810 56 130 71 139 118 63z m402 -18 c358 -91 684 -278 953
-546 77 -77 191 -209 191 -221 0 -8 -141 20 -238 48 -341 97 -652 278 -899
521 -88 87 -203 220 -203 235 0 10 35 3 196 -37z m3137 11 c-20 -36 -163 -193
-232 -254 -337 -302 -720 -481 -1149 -536 -140 -18 -162 -19 -162 -8 0 4 42
55 94 113 326 368 794 617 1281 682 150 20 178 21 168 3z m3816 -13 c-350
-457 -848 -746 -1412 -818 -137 -17 -177 -19 -177 -5 0 17 146 184 236 270
259 245 564 414 914 506 114 30 312 62 394 63 54 1 57 0 45 -16z m3811 10 c0
-5 -37 -50 -83 -100 -325 -364 -772 -606 -1250 -677 -57 -9 -123 -16 -146 -16
-38 0 -41 2 -31 19 18 35 231 250 309 313 304 245 683 407 1067 457 92 11 134
13 134 4z m-6823 -94 c228 -78 464 -209 646 -358 90 -73 240 -223 302 -302 45
-57 45 -59 22 -59 -14 0 -86 15 -160 34 -377 95 -715 291 -988 572 -68 70
-169 189 -169 198 0 10 245 -50 347 -85z m7386 60 c306 -61 625 -211 884 -416
82 -64 262 -244 322 -322 l35 -43 -55 7 c-83 11 -274 60 -374 95 -333 117
-662 342 -884 603 -39 47 -71 87 -71 91 0 11 38 7 143 -15z m3441 -56 c192
-386 252 -852 165 -1288 -24 -117 -92 -327 -143 -439 l-37 -78 -41 58 c-280
395 -692 699 -1143 844 -71 23 -137 45 -145 47 -8 3 14 14 50 25 179 52 421
159 569 251 218 135 448 342 600 540 45 59 84 107 87 107 2 0 19 -30 38 -67z
m-7049 -8 c238 -81 469 -209 658 -363 84 -69 292 -280 284 -288 -9 -9 -214 51
-319 92 -179 70 -358 171 -518 292 -78 59 -330 304 -330 321 0 9 128 -21 225
-54z m7435 29 c526 -103 1003 -420 1310 -870 33 -48 60 -94 60 -102 0 -45
-247 -319 -395 -439 -172 -139 -402 -269 -605 -343 -158 -58 -450 -120 -563
-120 l-36 0 26 58 c88 197 152 418 178 619 21 155 21 433 0 583 -28 198 -91
424 -165 587 l-28 62 46 -5 c26 -3 103 -17 172 -30z m-692 -6 c-36 -52 -226
-240 -304 -301 -288 -226 -670 -391 -1006 -435 -62 -8 -66 -7 -57 9 18 34 224
242 303 306 261 210 578 360 901 427 66 14 135 25 153 25 l33 1 -23 -32z
m-7031 -164 c123 -139 314 -296 493 -407 171 -105 443 -218 632 -262 43 -10
76 -20 74 -22 -2 -2 -57 -16 -122 -33 -401 -98 -748 -288 -1038 -569 -60 -58
-106 -98 -103 -88 25 67 59 207 79 315 30 171 33 537 5 706 -22 129 -73 320
-116 431 l-31 80 28 -35 c15 -19 59 -72 99 -116z m-4062 -6 c19 -58 47 -164
62 -235 25 -120 27 -144 28 -378 0 -222 -3 -263 -23 -362 -28 -140 -61 -255
-109 -380 l-37 -96 -19 44 c-31 73 -76 237 -98 354 -27 140 -37 442 -20 582
22 181 68 358 142 546 15 40 25 54 31 45 4 -7 24 -61 43 -120z m3825 -54 c124
-359 139 -761 44 -1137 -26 -105 -94 -297 -104 -297 -3 0 -22 42 -42 93 -182
463 -184 986 -6 1451 l31 79 18 -35 c10 -19 36 -88 59 -154z m3824 -2 c106
-329 123 -675 50 -1024 -24 -113 -96 -344 -114 -362 -4 -4 -24 41 -44 101
-125 389 -128 811 -6 1205 31 101 66 188 74 188 3 0 21 -49 40 -108z m-7127
-254 c138 -103 266 -181 402 -246 118 -56 361 -141 465 -162 l60 -12 -110 -28
c-508 -130 -967 -436 -1265 -845 -26 -36 -50 -61 -53 -56 -3 5 18 60 48 122
140 296 200 572 200 919 0 237 -25 427 -79 601 -3 8 48 -37 112 -101 65 -64
164 -151 220 -192z m6835 190 c-56 -179 -84 -387 -84 -613 0 -197 18 -347 65
-536 l33 -130 -96 94 c-123 122 -198 183 -342 278 -198 131 -444 241 -665 298
-57 14 -103 29 -103 32 0 4 21 10 48 14 78 12 275 72 395 120 263 108 537 286
706 459 30 30 57 54 59 52 2 -2 -5 -33 -16 -68z m703 -153 c182 -147 452 -292
686 -369 79 -26 151 -50 159 -52 8 -3 -23 -17 -70 -30 -342 -99 -673 -293
-936 -546 l-91 -88 29 102 c53 191 70 307 75 529 6 248 -10 411 -63 614 -7 28
-1 25 72 -41 43 -39 106 -92 139 -119z m-8414 38 c-11 -54 -26 -134 -33 -178
-16 -105 -16 -446 0 -560 12 -85 56 -298 69 -334 4 -9 -20 9 -53 40 -268 251
-620 446 -977 539 -61 16 -110 30 -107 30 54 9 290 77 365 105 246 92 527 259
700 417 28 25 52 45 54 43 1 -2 -6 -48 -18 -102z m3809 22 c-73 -315 -51 -797
51 -1092 l18 -52 -102 90 c-286 252 -605 420 -974 513 l-88 22 95 23 c336 82
675 256 934 481 38 33 71 59 72 57 2 -1 -1 -20 -6 -42z m-9145 -658 c292 -423
796 -764 1305 -881 112 -26 112 -27 15 -47 -336 -70 -671 -228 -949 -447 -94
-73 -297 -279 -366 -369 l-55 -73 -41 83 c-229 456 -264 1027 -95 1519 45 130
115 288 128 288 4 0 30 -33 58 -73z m14953 36 c-185 -222 -289 -323 -458 -443
-283 -202 -598 -324 -968 -375 l-44 -5 34 46 c51 72 213 239 309 319 234 195
533 348 819 419 117 29 250 54 294 55 27 1 28 0 14 -16z m632 -13 c332 -61
677 -228 955 -462 99 -84 249 -242 314 -333 l34 -48 -59 7 c-188 23 -426 96
-622 191 -220 106 -402 235 -567 400 -81 81 -225 253 -225 269 0 6 8 5 170
-24z m-11395 -25 c381 -79 741 -268 1019 -535 87 -83 241 -258 233 -266 -6 -7
-212 27 -308 51 -473 120 -870 380 -1169 769 -14 18 -12 18 50 11 36 -4 115
-18 175 -30z m7582 5 c295 -54 570 -172 838 -361 88 -63 359 -322 404 -386
l22 -33 -32 0 c-54 0 -271 48 -381 84 -285 93 -537 240 -766 445 -77 69 -223
228 -245 267 -9 15 -16 16 160 -16z m-8289 3 c-153 -183 -282 -301 -458 -418
-202 -135 -418 -233 -633 -289 -109 -28 -268 -58 -275 -51 -7 7 83 109 178
203 220 217 539 407 835 497 100 31 294 73 339 74 27 1 28 0 14 -16z m4437
-24 c353 -52 708 -210 1000 -446 105 -85 252 -230 242 -239 -3 -3 -56 2 -118
11 -324 47 -644 176 -911 366 -108 77 -273 222 -325 286 l-35 42 39 -5 c21 -3
70 -10 108 -15z m2985 -19 c-11 -16 -62 -67 -111 -112 -187 -172 -392 -305
-615 -399 -121 -52 -346 -122 -373 -117 -23 5 169 189 294 283 168 125 278
188 460 265 99 41 313 109 348 110 17 0 17 -2 -3 -30z m-3629 2 c-19 -35 -197
-216 -284 -289 -223 -185 -483 -325 -752 -403 -107 -31 -241 -60 -275 -60 -20
0 -19 3 12 42 54 70 207 220 293 288 235 186 512 326 780 394 124 31 183 44
213 45 19 1 21 -2 13 -17z m-3565 -49 c35 -82 85 -241 108 -347 90 -405 46
-857 -119 -1230 l-26 -60 -20 44 c-72 161 -131 412 -150 634 -24 295 31 633
151 919 18 42 34 77 36 77 2 0 11 -17 20 -37z m7405 -16 c-57 -132 -111 -339
-137 -527 -20 -139 -19 -422 1 -573 13 -99 68 -343 90 -398 3 -9 -35 24 -86
73 -224 217 -517 401 -809 508 -118 44 -333 97 -451 112 -54 6 -99 15 -99 20
0 4 17 10 38 13 156 27 303 62 417 99 367 121 718 351 967 633 45 51 83 91 85
89 2 -2 -5 -24 -16 -49z m-3593 -79 c46 -118 83 -251 109 -388 22 -121 25
-524 5 -640 -31 -171 -86 -361 -141 -485 l-27 -60 -41 105 c-191 488 -188
1021 9 1498 16 39 34 72 38 72 5 0 26 -46 48 -102z m4055 -37 c123 -142 313
-301 498 -416 184 -114 447 -225 639 -269 41 -10 82 -20 90 -23 8 -3 -30 -15
-85 -28 -476 -109 -898 -371 -1239 -770 -24 -28 -23 -24 15 85 50 143 84 281
106 430 22 155 22 455 -2 605 -21 136 -73 344 -114 450 l-30 80 25 -30 c14
-16 58 -68 97 -114z m7415 -4 c96 -248 133 -455 133 -732 0 -226 -30 -418 -96
-620 -31 -95 -104 -265 -114 -265 -4 0 -39 39 -78 88 -130 160 -306 318 -498
446 -193 129 -502 263 -720 311 l-79 18 130 33 c308 78 574 203 825 390 119
89 292 254 379 363 35 44 68 78 71 75 4 -2 25 -50 47 -107z m-7644 -77 c143
-436 128 -899 -46 -1360 -13 -34 -20 -21 -67 125 -140 426 -133 878 21 1310
32 89 32 89 45 60 7 -17 28 -77 47 -135z m3841 26 c123 -368 137 -772 40
-1146 -29 -109 -94 -290 -105 -290 -9 0 -51 115 -84 230 -100 354 -90 796 28
1151 46 139 65 184 76 173 5 -5 25 -58 45 -118z m366 -112 c277 -268 612 -453
1004 -554 94 -24 106 -29 80 -35 -234 -53 -390 -107 -574 -198 -286 -140 -572
-372 -763 -617 -33 -41 -36 -34 -8 19 58 116 132 391 161 601 15 110 15 400 0
515 -22 167 -69 364 -119 495 -3 8 21 -16 55 -55 33 -38 107 -115 164 -171z
m-7643 5 c192 -161 465 -311 713 -393 144 -48 349 -94 462 -103 70 -6 103 -23
44 -23 -48 0 -235 -35 -344 -65 -358 -96 -701 -291 -974 -553 l-97 -93 24 78
c89 285 114 640 68 950 -14 97 -61 299 -80 348 -5 12 16 -1 52 -33 32 -29 92
-80 132 -113z m-3658 -143 c252 -190 528 -323 827 -399 l123 -31 -83 -17
c-423 -86 -819 -297 -1134 -605 -58 -57 -102 -95 -98 -86 30 72 79 234 99 326
39 176 50 288 49 486 -1 196 -15 320 -57 492 l-23 97 101 -96 c56 -52 144
-128 196 -167z m10605 104 c-47 -190 -60 -301 -60 -530 1 -230 13 -342 61
-530 13 -52 24 -96 24 -98 0 -3 -37 29 -82 70 -121 109 -191 163 -304 238
-223 147 -457 247 -754 321 l-45 11 130 33 c372 95 687 262 970 514 43 39 80
69 81 68 2 -1 -8 -45 -21 -97z m-11481 8 c-37 -141 -49 -262 -49 -493 0 -251
12 -349 64 -549 l28 -107 -56 54 c-272 263 -626 458 -1016 557 -60 16 -103 31
-95 33 8 3 60 15 115 27 213 48 472 153 665 270 90 55 292 204 324 239 30 33
35 25 20 -31z m3786 -10 c0 -2 -9 -50 -21 -108 -26 -136 -37 -471 -20 -620 15
-125 54 -315 81 -395 11 -32 20 -60 20 -63 0 -3 -30 24 -67 60 -274 262 -627
456 -1007 553 l-130 33 60 11 c99 20 302 79 398 117 207 82 457 229 602 353
59 51 85 69 84 59z m-5481 -705 c-44 -99 -104 -283 -129 -398 -92 -429 -58
-866 100 -1269 22 -55 38 -101 36 -103 -7 -8 -234 21 -341 44 -398 83 -761
278 -1045 563 -115 115 -255 292 -247 312 12 32 137 189 215 271 240 250 529
433 852 540 181 60 394 102 537 106 l52 1 -30 -67z m7490 36 c-24 -46 -270
-281 -373 -357 -263 -194 -565 -326 -878 -382 -120 -22 -168 -25 -168 -11 0
16 205 225 291 296 225 188 505 334 787 411 100 28 276 62 325 63 25 1 27 -1
16 -20z m-7099 -183 c343 -359 839 -606 1342 -669 53 -7 97 -16 97 -22 1 -5
-39 -15 -89 -22 -386 -52 -812 -241 -1115 -495 -107 -90 -259 -245 -339 -345
-31 -40 -61 -73 -66 -73 -25 0 -114 219 -159 390 -117 444 -80 902 107 1329
l46 104 50 -59 c28 -32 84 -94 126 -138z m194 164 c302 -67 631 -230 871 -432
100 -84 235 -218 220 -218 -6 0 -58 11 -118 25 -381 86 -747 288 -1017 559
-95 97 -95 97 44 66z m7636 -12 c300 -72 600 -227 852 -437 104 -88 244 -234
228 -239 -18 -6 -262 59 -360 95 -196 73 -361 163 -530 289 -104 77 -284 243
-323 298 l-20 28 34 -7 c19 -3 72 -16 119 -27z m3020 -7 c-83 -106 -307 -293
-470 -394 -109 -67 -308 -159 -434 -201 -112 -37 -347 -91 -367 -84 -16 5 130
158 236 247 261 217 588 376 919 446 155 33 154 33 116 -14z m857 -10 c381
-98 758 -327 1021 -621 50 -57 92 -106 92 -110 0 -10 -113 12 -235 44 -383
102 -753 330 -1012 626 -46 51 -83 97 -83 101 0 8 102 -11 217 -40z m-8271
-38 c-119 -280 -170 -535 -170 -853 0 -226 14 -352 63 -541 l28 -107 -98 90
c-302 279 -626 458 -1005 554 -141 35 -314 64 -388 64 -74 0 -53 16 30 23 42
4 133 18 202 32 472 96 937 365 1244 721 59 68 87 94 104 94 l23 0 -33 -77z
m11994 27 c430 -88 802 -293 1105 -611 97 -102 205 -239 205 -261 0 -28 -169
-238 -279 -349 -237 -238 -509 -405 -827 -509 -134 -43 -327 -85 -446 -95
l-78 -7 39 83 c138 300 201 593 201 927 -1 304 -31 459 -166 843 -5 13 4 14
72 7 42 -4 120 -17 174 -28z m-667 15 c-21 -38 -173 -192 -261 -265 -260 -218
-556 -368 -877 -443 -119 -28 -245 -47 -245 -37 0 3 45 53 100 112 310 329
717 549 1165 629 128 22 128 22 118 4z m-11683 -77 c-286 -274 -676 -472
-1070 -542 l-34 -6 29 31 c64 68 244 215 344 282 193 128 452 240 676 292 151
36 152 35 55 -57z m955 47 c380 -97 708 -287 989 -574 44 -44 77 -83 73 -87
-11 -11 -232 45 -352 88 -198 73 -405 187 -565 311 -152 118 -330 297 -296
297 8 0 76 -16 151 -35z m11003 -77 c169 -435 185 -896 46 -1338 -32 -103
-106 -283 -123 -303 -4 -4 -35 28 -70 72 -136 173 -383 388 -585 511 -170 102
-404 200 -609 255 l-69 18 117 33 c465 130 890 409 1174 772 36 45 68 82 72
82 4 0 25 -46 47 -102z m-7608 9 c46 -102 98 -269 125 -399 70 -350 49 -701
-64 -1037 -22 -66 -49 -137 -60 -158 l-19 -38 -31 69 c-173 383 -213 865 -106
1286 35 138 108 340 122 340 2 0 17 -28 33 -63z m3809 -41 c52 -133 95 -301
117 -452 24 -177 15 -495 -20 -659 -37 -175 -115 -415 -135 -415 -11 0 -74
166 -106 277 -85 293 -98 645 -34 956 29 145 114 397 133 397 2 0 23 -47 45
-104z m-7579 -93 c81 -247 105 -419 97 -691 -2 -107 -12 -225 -21 -277 -33
-182 -128 -477 -147 -458 -13 13 -64 162 -88 258 -40 155 -53 250 -58 442 -6
211 3 320 43 499 35 161 108 369 125 359 4 -3 27 -63 49 -132z m7266 -16 c-83
-286 -104 -601 -60 -907 13 -90 69 -332 89 -381 3 -9 -29 17 -72 58 -168 159
-393 313 -608 414 -190 90 -466 169 -680 195 l-60 7 125 22 c446 79 815 258
1153 560 50 45 101 92 111 104 11 11 21 19 23 17 2 -2 -8 -42 -21 -89z m-3792
26 c-104 -342 -122 -732 -48 -1083 13 -63 37 -157 53 -208 l29 -93 -77 73
c-179 171 -352 293 -572 402 -230 114 -511 198 -754 224 l-80 8 50 8 c540 80
950 275 1315 624 52 50 96 91 97 92 1 0 -5 -21 -13 -47z m4630 -257 c61 -45
141 -101 177 -123 139 -87 382 -197 524 -237 30 -9 81 -23 112 -32 l57 -17
-119 -32 c-373 -102 -724 -307 -997 -580 -49 -48 -88 -85 -88 -82 0 3 9 33 19
68 74 242 95 390 95 659 0 231 -16 360 -69 559 -14 51 -25 93 -25 94 0 1 46
-42 102 -96 56 -54 151 -136 212 -181z m-3909 104 c310 -247 709 -420 1093
-473 89 -13 94 -14 57 -21 -322 -61 -491 -112 -700 -215 -207 -103 -362 -208
-556 -381 -41 -37 -70 -56 -65 -45 13 34 45 175 63 280 25 144 25 519 0 666
-16 95 -64 293 -83 344 -4 11 18 -4 52 -36 32 -30 95 -84 139 -119z m-3920 59
c302 -282 742 -493 1165 -559 117 -18 131 -21 124 -31 -3 -5 -17 -9 -31 -9
-14 0 -82 -11 -152 -25 -436 -89 -863 -322 -1175 -644 -43 -44 -76 -75 -73
-68 100 263 156 599 143 872 -8 186 -46 425 -82 520 -7 18 -6 19 12 6 10 -8
42 -36 69 -62z m-1875 -719 c484 -84 970 -372 1260 -744 15 -19 13 -19 -57
-13 -482 45 -991 306 -1319 677 -46 52 -84 97 -84 100 0 7 108 -3 200 -20z
m-4104 -79 c191 -240 453 -446 749 -591 216 -106 397 -164 640 -204 l130 -22
-113 -18 c-553 -85 -1070 -389 -1423 -835 -39 -50 -75 -89 -79 -86 -12 7 -94
207 -124 300 -69 216 -91 364 -90 615 0 224 12 321 64 515 34 128 65 215 122
338 32 69 44 85 53 75 6 -7 38 -46 71 -87z m15504 74 c450 -74 845 -278 1161
-602 63 -65 130 -138 149 -161 l33 -44 -59 7 c-198 23 -463 96 -644 178 -269
121 -543 328 -725 547 -36 43 -65 81 -65 84 0 10 50 7 150 -9z m-12169 -13
c-18 -34 -216 -217 -311 -288 -235 -175 -494 -298 -767 -364 -50 -12 -97 -20
-104 -18 -15 5 153 174 256 257 230 186 507 323 810 402 132 34 128 33 116 11z
m8399 -8 c356 -61 709 -231 998 -479 114 -98 261 -257 243 -263 -19 -6 -215
28 -328 58 -304 80 -576 221 -825 430 -89 74 -240 228 -261 266 -10 17 10 16
173 -12z m3070 8 c0 -16 -174 -193 -263 -268 -196 -165 -444 -304 -680 -382
-121 -40 -306 -87 -314 -78 -9 9 139 165 242 253 259 224 585 390 908 463 96
21 107 23 107 12z m4129 -79 c230 -461 264 -1045 89 -1541 -34 -98 -108 -262
-117 -262 -4 0 -29 30 -57 68 -67 92 -271 300 -374 382 -286 226 -613 381
-953 450 -56 12 -113 24 -127 27 -17 3 13 13 95 30 337 69 679 231 960 453
109 87 286 266 370 378 39 50 71 92 72 92 2 0 20 -35 42 -77z m-8018 29 c-85
-108 -311 -299 -472 -399 -84 -52 -228 -125 -325 -163 -85 -34 -279 -94 -338
-104 l-39 -7 54 62 c183 212 486 421 776 537 103 41 328 110 366 112 5 0 -5
-17 -22 -38z m-2991 1 c342 -56 696 -221 977 -456 97 -81 248 -235 239 -244
-19 -19 -351 51 -511 107 -313 111 -649 333 -846 561 l-54 62 50 -7 c28 -4 93
-14 145 -23z m7024 -122 c-160 -402 -189 -896 -79 -1326 18 -71 37 -139 41
-150 4 -11 -37 24 -92 79 -323 322 -720 535 -1162 624 l-139 28 131 26 c432
88 832 304 1146 618 63 63 133 139 154 167 22 29 41 51 42 50 2 -1 -18 -53
-42 -116z m-7954 -4 c-187 -181 -414 -328 -656 -425 -127 -51 -315 -107 -336
-100 -5 2 36 48 92 102 248 238 536 404 868 501 64 19 124 34 132 34 8 0 -37
-50 -100 -112z m4093 -4 c-88 -246 -126 -470 -126 -738 0 -287 49 -551 149
-800 25 -64 44 -118 41 -121 -2 -2 -29 26 -60 64 -78 94 -234 244 -345 330
-268 206 -599 357 -933 426 -70 14 -136 26 -147 26 -17 0 -62 46 -62 63 0 3
21 9 48 12 531 75 1046 350 1385 741 45 52 82 94 83 94 1 0 -13 -44 -33 -97z
m-7363 -43 c82 -221 114 -416 114 -685 0 -225 -11 -320 -61 -510 -24 -94 -106
-321 -123 -338 -8 -9 -68 142 -104 266 -51 176 -70 324 -70 542 0 164 4 224
23 330 26 148 73 310 127 439 36 87 37 88 51 63 7 -14 27 -63 43 -107z m3774
4 c48 -124 82 -246 108 -384 19 -97 22 -150 22 -345 0 -195 -3 -248 -22 -345
-36 -193 -123 -463 -143 -443 -17 17 -92 230 -120 342 -83 328 -77 713 16
1035 36 125 86 249 96 239 4 -4 24 -49 43 -99z m-4084 -38 c-76 -229 -110
-435 -110 -688 0 -201 26 -416 67 -553 4 -14 -8 -7 -43 23 -196 172 -354 278
-559 378 -223 108 -434 173 -678 208 l-82 11 135 24 c459 79 877 291 1197 609
59 59 109 107 110 106 2 0 -15 -54 -37 -118z m7910 27 c79 -220 115 -433 114
-688 0 -192 -16 -324 -59 -490 -29 -111 -84 -265 -95 -265 -12 0 -87 236 -109
345 -60 302 -53 604 20 905 18 72 88 280 95 280 1 0 16 -39 34 -87z m3869 -69
c146 -445 128 -967 -49 -1378 l-17 -41 -17 40 c-35 81 -85 264 -107 390 -33
185 -33 474 0 659 33 187 123 478 142 459 5 -5 26 -63 48 -129z m-7995 14
c-41 -140 -73 -316 -85 -472 -20 -243 11 -523 85 -775 l24 -84 -51 50 c-345
334 -781 554 -1242 628 -55 9 -101 18 -103 20 -2 1 16 6 40 10 495 75 956 303
1283 634 38 39 70 71 71 71 1 0 -9 -37 -22 -82z m4611 -192 c136 -102 212
-149 345 -216 199 -100 395 -166 604 -205 l121 -22 -70 -12 c-480 -87 -931
-327 -1252 -668 l-81 -86 33 101 c71 213 105 429 105 672 0 231 -27 430 -85
616 -14 44 -25 81 -25 84 0 3 44 -37 97 -89 54 -51 148 -130 208 -175z m-7690
50 c131 -107 260 -189 430 -271 222 -109 441 -177 663 -206 50 -7 91 -14 89
-15 -1 -2 -47 -10 -102 -19 -222 -35 -429 -102 -640 -204 -214 -105 -366 -210
-564 -390 -52 -47 -92 -79 -89 -70 4 9 16 47 27 85 114 384 112 865 -6 1239
-4 14 11 5 48 -28 30 -26 95 -81 144 -121z m3793 -15 c337 -274 831 -466 1255
-488 79 -4 121 -10 128 -19 15 -18 9 -20 -146 -34 -405 -35 -798 -180 -1122
-411 -110 -80 -153 -116 -257 -217 -49 -48 -86 -78 -82 -67 4 11 21 67 37 124
120 428 115 818 -17 1271 -6 20 6 13 65 -40 40 -36 103 -89 139 -119z m7682
-34 c275 -221 623 -383 972 -453 l138 -28 -108 -21 c-460 -93 -879 -323 -1194
-653 l-86 -91 28 79 c34 91 72 237 95 365 26 139 31 469 11 633 -15 117 -52
293 -72 347 -4 11 26 -11 67 -49 41 -38 108 -96 149 -129z m-13910 -571 c0 -2
-15 -40 -34 -84 -82 -192 -144 -438 -165 -656 -35 -352 22 -712 164 -1052 l44
-104 -32 0 c-61 0 -212 21 -332 45 -442 89 -871 343 -1162 687 -81 95 -153
196 -153 213 0 28 162 229 274 341 187 186 339 294 581 410 144 70 293 121
442 154 134 30 373 59 373 46z m617 -62 c290 -72 593 -229 837 -435 96 -81
273 -266 263 -275 -9 -10 -216 39 -345 82 -316 103 -621 297 -851 540 -127
134 -127 135 -41 118 38 -7 100 -20 137 -30z m-361 -51 c87 -112 264 -290 374
-375 337 -261 713 -417 1143 -473 51 -7 54 -10 32 -39 -11 -14 -43 -23 -134
-37 -376 -57 -719 -200 -1022 -425 -113 -84 -301 -262 -382 -361 -28 -35 -54
-63 -57 -63 -13 0 -108 214 -144 321 -74 222 -101 420 -93 687 5 207 21 314
72 492 28 98 130 360 140 360 2 0 34 -39 71 -87z m3394 58 c0 -16 -202 -215
-285 -281 -235 -186 -510 -325 -780 -394 -115 -29 -279 -59 -302 -54 -24 4
188 216 305 306 282 216 588 350 937 411 135 24 125 23 125 12z m7559 -61
c-272 -306 -681 -542 -1099 -633 -63 -14 -137 -28 -164 -32 l-50 -7 64 72
c226 255 551 467 887 579 124 41 331 89 391 90 l34 1 -63 -70z m743 45 c322
-67 638 -218 897 -428 101 -82 258 -240 243 -245 -7 -2 -56 6 -109 18 -296 68
-592 211 -840 407 -75 59 -285 263 -271 263 4 0 40 -7 80 -15z m3455 -105 c52
-122 103 -294 128 -430 26 -143 32 -462 10 -614 -28 -203 -104 -456 -187 -619
l-19 -38 -56 73 c-333 434 -802 726 -1347 839 -135 28 -172 39 -127 39 50 0
235 45 374 90 390 129 769 384 1012 684 l70 86 49 -2 48 -3 45 -105z m388 70
c431 -87 854 -332 1134 -654 83 -96 190 -236 191 -250 0 -5 -32 -52 -71 -105
-89 -119 -295 -325 -412 -413 -311 -231 -678 -372 -1079 -412 l-57 -6 39 84
c233 504 261 1088 79 1616 -27 80 -52 152 -55 161 -5 15 3 15 83 4 48 -7 115
-18 148 -25z m-11339 -11 c286 -80 550 -221 786 -418 84 -71 247 -237 256
-261 5 -13 -151 24 -288 69 -222 72 -490 218 -660 359 -72 60 -223 207 -263
256 l-31 39 48 -7 c26 -4 95 -21 152 -37z m10493 -45 c-255 -260 -605 -459
-967 -550 -187 -47 -189 -47 -117 27 216 221 513 407 810 509 117 39 326 92
334 84 3 -3 -24 -34 -60 -70z m-7534 -6 c-243 -265 -596 -483 -944 -583 -115
-33 -362 -80 -383 -73 -15 5 158 179 257 258 239 190 515 328 803 400 110 28
302 61 311 54 2 -2 -18 -27 -44 -56z m4235 -178 c100 -303 125 -641 70 -960
-24 -135 -74 -314 -116 -407 l-25 -58 -15 35 c-41 95 -97 277 -119 385 -77
379 -44 762 98 1130 l30 80 20 -45 c10 -25 36 -97 57 -160z m-3400 164 c305
-84 623 -263 851 -481 43 -42 78 -77 76 -79 -2 -2 -44 7 -95 21 -283 76 -597
248 -829 454 -101 90 -121 111 -106 111 4 0 51 -12 103 -26z m-465 -41 c103
-233 155 -492 155 -783 0 -246 -25 -406 -101 -635 -62 -189 -59 -187 -107 -64
-54 137 -88 258 -114 399 -18 95 -21 153 -21 340 0 243 14 359 67 540 28 97
86 260 92 260 2 0 16 -26 29 -57z m-3776 -40 c123 -348 149 -717 76 -1078 -23
-113 -79 -294 -123 -395 l-20 -45 -21 49 c-12 28 -35 94 -51 148 -128 431
-110 891 52 1306 22 56 43 102 48 102 4 0 22 -39 39 -87z m-280 -33 c-158
-445 -157 -983 4 -1431 l34 -95 -136 136 c-382 384 -850 607 -1386 663 -97 10
-120 15 -123 29 -3 13 10 17 75 23 119 10 279 33 368 55 417 98 796 310 1094
611 53 53 97 96 98 95 1 -1 -12 -40 -28 -86z m7586 -50 c-121 -421 -111 -883
28 -1301 l43 -128 -79 85 c-218 233 -537 442 -851 559 -148 55 -344 102 -506
121 -164 19 -173 21 -166 32 3 5 46 12 95 15 205 15 500 92 711 187 249 112
478 269 667 459 48 48 89 88 90 87 0 -1 -14 -53 -32 -116z m753 -138 c171
-131 356 -235 569 -318 118 -47 341 -108 434 -120 62 -8 100 -23 59 -24 -14 0
-68 -9 -120 -20 -413 -87 -794 -285 -1091 -568 -49 -46 -89 -82 -89 -78 0 3
11 47 24 98 53 207 61 276 61 553 0 310 -12 389 -102 690 -3 11 31 -15 78 -60
46 -44 126 -113 177 -153z m-3788 -33 c297 -223 640 -368 1010 -429 67 -11 99
-28 100 -52 0 -4 -21 -10 -47 -13 -221 -31 -459 -103 -663 -201 -220 -106
-388 -219 -570 -384 l-98 -90 19 63 c119 392 116 867 -9 1264 l-29 91 106 -96
c59 -54 140 -122 181 -153z m-3790 -26 c308 -233 644 -377 1023 -439 59 -9
107 -20 107 -23 0 -3 -10 -18 -23 -32 -19 -23 -37 -29 -132 -44 -465 -73 -902
-301 -1249 -652 -97 -97 -106 -104 -91 -68 42 96 105 299 128 410 70 335 61
697 -26 1017 l-24 87 96 -92 c53 -51 139 -124 191 -164z m2986 90 c-43 -180
-58 -312 -58 -508 -1 -210 17 -357 67 -550 32 -125 86 -278 121 -347 11 -21
-29 15 -106 94 -145 152 -240 233 -389 332 -307 205 -646 328 -1020 370 -89
10 -106 15 -119 34 -14 22 -14 22 36 22 155 0 441 58 647 131 280 99 613 306
794 493 25 25 47 44 49 41 2 -2 -8 -53 -22 -112z m6344 -668 c487 -79 953
-342 1262 -714 43 -52 76 -96 73 -99 -7 -7 -161 17 -270 43 -409 96 -806 331
-1077 638 -43 49 -87 102 -99 118 -25 36 -25 36 111 14z m-650 -3 c0 -16 -208
-228 -295 -301 -242 -202 -561 -361 -860 -429 -130 -30 -175 -36 -175 -23 0
17 227 247 309 313 254 205 565 354 880 423 118 26 141 29 141 17z m-14893
-64 c281 -368 687 -649 1129 -783 188 -57 326 -81 589 -101 l90 -7 -143 -13
c-171 -15 -253 -28 -391 -61 -307 -74 -605 -218 -861 -417 -90 -69 -268 -245
-348 -341 -36 -44 -69 -84 -74 -89 -11 -14 -111 201 -157 339 -77 231 -106
440 -98 695 6 192 30 344 81 512 31 101 122 328 131 328 2 0 25 -28 52 -62z
m11505 -83 c91 -111 260 -272 378 -359 323 -241 722 -400 1098 -437 158 -16
163 -24 27 -38 -525 -52 -1004 -277 -1382 -645 -51 -50 -93 -89 -93 -86 0 3
12 41 25 85 77 244 106 608 70 885 -26 212 -90 439 -175 626 -17 38 -27 65
-22 59 4 -5 38 -46 74 -90z m312 60 c387 -78 744 -269 1039 -555 139 -134 139
-131 14 -109 -342 61 -685 219 -950 438 -110 91 -265 251 -243 251 10 0 73
-11 140 -25z m7179 -82 c112 -264 156 -463 164 -744 10 -312 -35 -559 -154
-841 -25 -60 -48 -108 -51 -107 -4 0 -36 38 -72 85 -83 109 -238 266 -354 359
-252 202 -541 347 -859 430 l-121 32 95 23 c470 114 931 406 1219 774 41 53
78 96 81 96 3 0 27 -48 52 -107z m-14848 67 c336 -65 671 -225 934 -445 88
-74 257 -242 250 -249 -7 -7 -199 30 -304 59 -254 69 -514 199 -725 363 -92
72 -250 220 -282 264 -19 28 -19 28 1 28 11 0 68 -9 126 -20z m6744 -56 c-192
-196 -468 -375 -740 -480 -98 -38 -310 -97 -318 -88 -7 7 83 97 189 186 240
203 535 356 835 432 50 13 92 22 94 19 3 -2 -24 -33 -60 -69z m-7099 -135
c107 -321 126 -680 55 -1024 -25 -125 -89 -325 -129 -403 l-23 -45 -31 74
c-194 470 -186 1069 21 1533 l31 69 19 -44 c10 -24 36 -96 57 -160z m-505 130
c-77 -77 -216 -191 -325 -264 -113 -75 -359 -195 -491 -238 -123 -41 -257 -72
-267 -63 -7 8 99 110 204 196 219 181 505 326 784 399 163 43 165 42 95 -30z
m4725 16 c285 -61 576 -192 808 -364 92 -69 275 -231 268 -238 -10 -10 -224
40 -351 82 -221 72 -404 167 -594 308 -88 65 -275 236 -259 237 4 0 62 -11
128 -25z m-945 -66 c-207 -209 -502 -392 -790 -488 -140 -47 -245 -73 -245
-61 0 13 165 161 256 231 215 165 480 294 749 364 50 13 92 24 95 25 2 0 -27
-32 -65 -71z m485 -26 c158 -437 172 -878 40 -1304 -35 -115 -99 -269 -110
-269 -10 0 -60 128 -89 226 -117 398 -107 831 27 1224 35 104 82 210 92 210 5
0 22 -39 40 -87z m3545 -12 c-123 -361 -144 -810 -55 -1179 11 -46 20 -88 20
-94 0 -5 -33 19 -72 55 -278 247 -635 428 -1009 511 -64 14 -127 26 -140 26
-61 1 -39 17 44 33 141 28 374 109 520 181 235 115 427 253 607 436 58 58 106
106 107 105 2 -1 -8 -34 -22 -74z m3845 -34 c-75 -224 -110 -438 -110 -684 0
-280 47 -541 146 -798 4 -11 -37 26 -91 83 -258 271 -584 480 -931 595 -131
43 -361 97 -417 97 -13 0 -35 9 -48 19 l-24 19 50 7 c543 72 1028 313 1375
683 47 50 86 91 86 91 1 1 -15 -50 -36 -112z m279 -33 c121 -368 131 -761 31
-1140 -36 -135 -90 -279 -100 -267 -10 10 -64 170 -84 249 -103 403 -81 805
66 1212 17 46 34 80 39 75 5 -5 26 -63 48 -129z m-3864 -37 c135 -386 149
-796 40 -1189 -18 -68 -41 -141 -51 -163 l-17 -40 -33 87 c-139 360 -171 775
-88 1145 32 145 85 306 96 295 5 -5 29 -66 53 -135z m4295 -133 c273 -220 587
-374 913 -450 l78 -18 -119 -31 c-167 -44 -285 -88 -442 -166 -241 -120 -431
-259 -626 -460 l-100 -104 37 115 c70 220 99 411 99 662 0 232 -37 486 -94
647 -9 24 -16 47 -16 51 0 5 44 -36 98 -89 53 -53 131 -124 172 -157z m-12225
121 c-64 -235 -89 -475 -74 -721 11 -179 46 -374 90 -503 11 -30 19 -56 19
-59 0 -2 -33 26 -72 64 -243 225 -526 396 -825 498 -136 46 -314 90 -418 102
-74 8 -105 19 -105 37 0 10 19 16 60 20 326 34 717 187 1015 396 83 58 258
205 309 260 16 17 31 30 32 28 1 -1 -13 -56 -31 -122z m4583 -113 c279 -215
653 -381 972 -431 41 -7 82 -15 90 -18 8 -3 -32 -16 -90 -29 -483 -110 -911
-368 -1234 -744 -22 -25 -37 -38 -34 -30 105 305 140 500 140 785 0 200 -19
353 -67 540 -18 71 -37 139 -41 150 -4 11 33 -18 82 -65 49 -47 131 -118 182
-158z m-768 144 c-30 -88 -67 -250 -86 -376 -21 -139 -24 -431 -5 -570 14
-109 55 -301 77 -363 l15 -42 -48 46 c-334 321 -800 550 -1239 610 -160 22
-148 46 36 77 445 75 896 307 1199 616 36 36 66 64 68 62 2 -1 -6 -28 -17 -60z
m-2973 -232 c314 -225 745 -385 1104 -411 58 -4 88 -10 86 -17 -2 -6 -50 -16
-108 -23 -441 -52 -867 -233 -1199 -511 -52 -44 -135 -121 -184 -172 -49 -51
-87 -86 -83 -79 126 310 177 562 177 877 0 193 -28 423 -66 546 -4 11 35 -17
89 -64 53 -46 135 -111 184 -146z m4983 -530 c0 -12 -130 -160 -197 -225 -326
-316 -773 -533 -1186 -576 l-62 -6 49 59 c256 307 587 535 956 657 170 57 440
112 440 91z m7869 -127 c222 -524 210 -1127 -34 -1636 l-55 -113 -67 83 c-367
456 -926 758 -1520 821 -68 8 -112 16 -110 23 2 5 39 13 83 17 198 18 436 73
614 143 215 84 460 228 628 368 101 85 284 275 346 359 58 79 52 82 115 -65z
m418 88 c392 -81 762 -283 1049 -571 89 -90 247 -283 261 -321 12 -32 -166
-262 -309 -399 -261 -249 -573 -423 -923 -515 -161 -42 -395 -74 -395 -54 0 3
20 49 44 102 84 187 150 429 176 643 14 120 12 397 -4 520 -27 199 -86 418
-152 567 -13 31 -24 59 -24 62 0 11 145 -7 277 -34z m-7624 14 c288 -58 601
-200 840 -381 88 -67 264 -233 330 -311 l40 -48 -39 6 c-401 69 -729 212
-1017 445 -83 67 -254 234 -288 282 l-20 28 26 0 c15 0 73 -9 128 -21z m6897
2 c0 -13 -198 -210 -276 -273 -248 -202 -572 -357 -884 -423 -129 -27 -160
-30 -160 -16 0 15 202 213 285 280 245 198 561 348 870 415 119 26 165 31 165
17z m-15146 -98 c-84 -183 -152 -441 -175 -662 -15 -141 -7 -429 16 -561 22
-129 58 -269 101 -390 20 -56 34 -103 33 -105 -2 -1 -53 4 -114 11 -444 58
-854 257 -1179 573 -106 104 -228 244 -248 288 -13 26 20 75 143 219 265 306
640 536 1047 640 128 33 294 61 374 63 l37 1 -35 -77z m359 -1 c200 -239 475
-451 765 -589 193 -92 482 -178 668 -199 72 -7 87 -15 79 -37 -5 -11 -25 -18
-63 -22 -436 -49 -817 -197 -1152 -449 -110 -82 -295 -258 -376 -358 -47 -57
-62 -69 -83 -66 -21 3 -31 15 -59 83 -18 44 -49 132 -67 197 -137 474 -99 965
112 1418 44 97 47 100 79 100 28 0 40 -10 97 -78z m10862 -33 c-324 -328 -723
-529 -1193 -604 -41 -7 -43 -6 -33 12 5 11 54 61 107 113 303 289 676 480
1086 555 134 24 133 26 33 -76z m-10460 26 c321 -97 616 -270 849 -497 l91
-89 -40 6 c-22 4 -91 22 -155 40 -314 91 -612 262 -839 483 l-106 103 45 -7
c25 -3 95 -21 155 -39z m11368 5 c347 -97 688 -298 927 -544 63 -65 69 -64
-90 -19 -263 74 -527 209 -740 380 -108 86 -238 212 -219 213 8 0 64 -13 122
-30z m-8524 -6 c-8 -9 -63 -59 -124 -112 -286 -246 -617 -406 -989 -477 l-69
-13 59 60 c182 185 472 367 739 463 121 44 379 108 394 98 2 -1 -2 -10 -10
-19z m887 -24 c267 -71 529 -201 744 -368 86 -67 270 -239 270 -252 0 -4 -37
1 -82 12 -295 68 -614 229 -853 430 -113 95 -224 208 -205 208 8 0 65 -13 126
-30z m3777 -277 c220 -184 470 -321 751 -412 125 -41 320 -84 434 -97 34 -4
62 -10 62 -14 0 -18 -32 -28 -144 -44 -449 -65 -884 -277 -1214 -591 -51 -48
-92 -84 -92 -80 0 3 11 51 25 104 45 180 59 300 59 521 1 225 -11 331 -54 510
-27 107 -85 284 -124 374 -15 33 0 20 96 -79 62 -65 153 -151 201 -192z
m-4449 250 c-9 -21 -36 -94 -60 -164 -139 -405 -150 -883 -30 -1294 l33 -110
-126 126 c-254 254 -552 438 -891 549 -126 42 -317 85 -420 95 -88 9 -93 11
-81 33 8 15 31 21 117 31 365 42 705 166 1004 366 144 96 234 171 360 299 58
58 106 106 108 106 1 0 -5 -17 -14 -37z m7839 -68 c161 -414 181 -885 53
-1305 -19 -63 -43 -135 -54 -160 l-19 -45 -41 105 c-92 237 -131 425 -139 680
-8 254 23 477 96 691 43 127 51 143 60 133 5 -5 24 -49 44 -99z m442 -184
c311 -249 719 -430 1088 -482 69 -9 90 -16 98 -31 6 -11 9 -21 7 -22 -2 -1
-46 -8 -98 -15 -52 -7 -154 -28 -226 -46 -392 -100 -733 -290 -1026 -573 l-88
-85 15 49 c116 370 131 781 43 1158 -17 76 -65 229 -94 301 -4 11 39 -27 97
-85 57 -58 140 -134 184 -169z m-7564 -99 c324 -241 659 -378 1091 -447 37 -6
38 -6 22 -30 -12 -19 -28 -25 -72 -30 -118 -14 -307 -57 -438 -100 -313 -103
-607 -278 -846 -504 l-96 -91 29 90 c57 178 99 448 99 639 0 221 -42 479 -113
690 l-42 126 135 -136 c74 -74 178 -167 231 -207z m3288 268 c41 -96 90 -256
118 -385 26 -122 27 -145 28 -385 0 -206 -3 -272 -18 -345 -27 -135 -62 -263
-98 -357 l-32 -83 -24 50 c-37 80 -100 281 -122 390 -73 366 -46 731 81 1083
16 45 33 82 38 82 4 0 17 -22 29 -50z m-3779 -107 c74 -226 100 -392 100 -630
0 -180 -19 -340 -60 -497 -31 -121 -98 -306 -110 -306 -11 0 -86 231 -109 335
-59 274 -60 585 -1 855 35 157 114 385 130 375 5 -3 28 -63 50 -132z m7300 -5
c-48 -192 -64 -322 -64 -533 0 -131 6 -226 18 -305 21 -141 74 -348 115 -455
17 -44 31 -81 31 -82 0 -1 -37 36 -82 84 -368 383 -865 626 -1398 683 -169 18
-171 24 -15 40 508 51 1032 294 1364 634 30 30 56 54 58 53 1 -2 -11 -56 -27
-119z m-3811 -43 c-54 -201 -72 -369 -66 -615 3 -160 10 -244 26 -326 27 -143
79 -322 130 -449 22 -55 34 -92 27 -82 -8 10 -51 61 -96 112 -276 316 -678
564 -1090 674 -130 35 -331 71 -393 71 -47 0 -77 14 -62 28 6 5 64 15 130 21
460 45 900 230 1255 529 52 44 110 96 129 116 19 20 36 35 37 33 2 -1 -10 -52
-27 -112z m-9137 -790 c137 -167 352 -354 538 -469 310 -192 641 -301 1020
-336 64 -6 117 -16 121 -22 4 -6 -17 -57 -46 -112 -68 -128 -134 -292 -174
-432 -135 -477 -97 -1027 100 -1463 l29 -64 -72 7 c-299 27 -673 165 -935 342
-457 310 -754 753 -870 1301 -25 119 -27 146 -28 368 0 264 11 355 67 554 46
166 161 434 178 414 3 -5 36 -44 72 -88z m18997 -150 c78 -221 113 -427 113
-670 0 -322 -63 -595 -202 -880 -276 -565 -812 -979 -1437 -1111 -115 -24
-263 -42 -263 -31 0 3 9 26 20 51 63 148 121 366 145 550 17 134 20 402 5 526
-32 263 -130 578 -240 774 -17 29 -30 55 -30 58 0 3 46 8 101 12 416 29 841
191 1198 459 123 92 327 295 416 416 l70 93 37 -79 c20 -44 50 -120 67 -168z
m-14819 153 c300 -82 575 -225 799 -413 106 -90 247 -232 238 -241 -10 -10
-237 43 -357 83 -195 65 -416 181 -588 310 -76 57 -322 289 -322 303 0 9 131
-14 230 -42z m11392 27 c308 -64 604 -200 860 -397 119 -92 338 -312 315 -316
-10 -2 -66 6 -126 17 -342 66 -659 213 -930 434 -79 64 -281 265 -281 279 0
13 38 9 162 -17z m-12366 -81 c-279 -271 -629 -458 -1011 -539 -60 -13 -111
-22 -113 -21 -1 2 49 52 111 112 266 255 599 435 961 519 166 39 166 38 52
-71z m8492 81 c322 -56 639 -196 904 -396 85 -65 298 -265 298 -281 0 -5 -10
-6 -22 -4 -13 3 -72 15 -133 26 -344 68 -680 236 -963 484 -89 77 -191 186
-175 186 4 0 45 -7 91 -15z m-757 -24 c-37 -52 -219 -228 -303 -294 -265 -206
-532 -333 -855 -406 -46 -10 -83 -15 -83 -10 0 15 199 217 280 284 168 140
396 272 605 350 82 31 336 103 368 105 5 0 -1 -13 -12 -29z m418 -74 c90 -232
130 -423 138 -672 11 -322 -49 -626 -177 -900 -40 -88 -42 -89 -55 -65 -48 93
-128 356 -157 520 -18 102 -18 519 0 620 21 113 58 257 93 356 38 109 99 244
110 244 4 0 26 -46 48 -103z m3311 17 c-205 -208 -453 -370 -727 -478 -96 -37
-356 -110 -374 -104 -15 5 192 203 286 274 125 95 218 152 370 225 148 71 243
107 390 145 151 39 152 37 55 -62z m-6742 9 c285 -62 565 -192 810 -375 119
-90 334 -301 311 -306 -31 -6 -271 49 -392 89 -216 72 -406 172 -596 313 -103
77 -252 214 -302 277 l-31 40 43 -7 c24 -3 95 -17 157 -31z m-4464 -20 c-68
-161 -123 -364 -150 -550 -21 -143 -23 -427 -5 -563 26 -193 89 -427 160 -594
12 -27 20 -50 19 -52 -2 -1 -59 6 -128 16 -550 82 -1033 370 -1369 817 -87
115 -102 147 -80 167 8 7 59 19 114 25 343 40 693 168 980 359 149 99 290 216
392 327 43 46 79 84 81 85 1 0 -5 -17 -14 -37z m3541 -24 c-254 -259 -612
-453 -1004 -543 l-64 -15 44 46 c173 179 451 361 707 463 85 33 330 107 367
109 5 1 -17 -26 -50 -60z m284 0 c-12 -30 -36 -112 -54 -184 -100 -392 -85
-843 40 -1214 l34 -101 -102 94 c-56 52 -129 116 -162 142 -334 261 -746 427
-1177 475 -60 6 -108 15 -108 19 0 4 51 15 113 24 236 36 441 98 645 196 261
126 435 250 642 459 80 81 146 147 147 146 2 -1 -7 -26 -18 -56z m7606 -40
c-140 -407 -151 -876 -32 -1287 l24 -81 -76 68 c-358 320 -758 512 -1209 579
l-115 18 135 26 c457 91 889 328 1203 660 50 52 91 94 92 93 2 -1 -8 -35 -22
-76z m-11182 -49 c147 -396 163 -873 40 -1264 -40 -130 -105 -288 -113 -279
-4 4 -24 52 -44 106 -158 426 -168 903 -27 1327 53 159 90 239 100 220 5 -8
25 -58 44 -110z m11872 -197 c321 -259 729 -435 1128 -486 59 -8 110 -17 114
-20 6 -7 -73 -108 -158 -201 -81 -89 -249 -230 -368 -309 -206 -136 -479 -251
-719 -301 -108 -23 -320 -51 -327 -44 -2 2 19 69 46 149 91 270 126 501 116
784 -8 239 -43 427 -119 646 l-33 94 120 -124 c66 -68 156 -153 200 -188z
m-456 172 c128 -354 151 -784 60 -1150 -27 -109 -69 -235 -78 -235 -14 0 -89
242 -118 375 -26 123 -27 145 -27 390 -1 246 1 267 27 386 31 146 87 330 98
324 4 -3 21 -43 38 -90z m-7586 -135 c114 -376 112 -794 -4 -1164 l-32 -101
-24 54 c-39 89 -90 268 -112 401 -53 310 -31 643 62 930 l30 95 23 -50 c12
-27 38 -102 57 -165z m-3372 -66 c236 -175 510 -307 789 -380 107 -28 316 -64
371 -64 20 0 42 -6 48 -14 9 -11 -8 -16 -96 -30 -410 -63 -797 -237 -1110
-500 -89 -74 -241 -227 -301 -301 -18 -22 -32 -37 -32 -34 0 3 12 34 26 69 84
206 134 460 141 720 8 252 -18 464 -82 676 -14 45 -25 85 -25 89 0 4 39 -30
88 -76 48 -45 130 -115 183 -155z m6833 159 c-56 -181 -94 -438 -94 -634 0
-185 33 -424 84 -596 13 -46 21 -83 19 -83 -3 0 -37 30 -75 66 -312 294 -789
513 -1235 566 -56 7 -101 13 -99 15 1 1 63 14 138 28 461 85 873 300 1193 624
49 50 90 91 91 91 1 0 -9 -35 -22 -77z m745 -102 c313 -256 721 -428 1156
-487 50 -7 49 -7 -70 -29 -454 -85 -863 -302 -1190 -630 l-120 -120 33 95
c124 356 152 762 75 1130 -14 69 -28 136 -30 150 -5 23 -2 22 38 -16 24 -23
73 -64 108 -93z m-3814 -102 c235 -180 537 -328 819 -400 105 -27 288 -59 337
-59 22 0 39 -4 39 -10 0 -5 -12 -10 -26 -10 -15 0 -83 -11 -153 -25 -347 -71
-701 -238 -987 -469 -44 -36 -135 -122 -202 -191 l-121 -126 23 58 c89 228
136 492 136 768 0 195 -20 365 -64 536 l-32 127 85 -77 c47 -42 113 -97 146
-122z m9079 -636 c88 -177 157 -403 187 -613 22 -153 17 -439 -10 -595 -28
-157 -77 -325 -136 -460 l-44 -100 -113 2 c-217 4 -524 80 -750 186 -322 150
-587 367 -804 657 -35 47 -64 88 -64 91 0 3 35 9 78 13 329 29 685 148 979
327 194 118 447 342 573 506 30 40 56 72 57 73 2 0 23 -39 47 -87z m-14949
-258 c356 -356 819 -583 1318 -646 53 -7 97 -16 97 -20 0 -17 -143 -191 -226
-274 -300 -303 -667 -501 -1084 -584 -111 -21 -271 -41 -340 -41 l-41 0 -49
103 c-248 527 -246 1155 6 1695 l43 94 78 -104 c43 -57 132 -157 198 -223z
m10895 315 c0 -17 -239 -257 -321 -321 -200 -158 -418 -277 -649 -353 -120
-40 -311 -86 -355 -86 -24 0 -8 23 90 127 296 317 680 530 1121 623 106 22
114 23 114 10z m708 -10 c358 -72 672 -223 953 -459 94 -78 223 -210 215 -218
-8 -8 -176 27 -296 62 -228 66 -472 188 -667 334 -88 66 -313 276 -313 292 0
11 -8 12 108 -11z m-7612 -46 c435 -85 847 -322 1145 -658 49 -55 89 -103 89
-108 0 -13 -29 -10 -175 17 -362 67 -706 233 -990 477 -95 82 -253 249 -278
293 -10 18 32 14 209 -21z m-766 7 c0 -15 -214 -226 -295 -291 -254 -201 -550
-343 -865 -414 -62 -14 -116 -23 -118 -21 -8 8 224 238 308 305 241 192 538
335 840 404 119 28 130 29 130 17z m3822 -49 c-33 -46 -194 -204 -275 -270
-192 -157 -433 -289 -667 -366 -134 -43 -348 -92 -372 -84 -16 6 180 208 279
290 249 203 593 368 893 427 58 11 114 22 125 24 11 3 24 5 28 6 5 0 -1 -11
-11 -27z m482 -69 c311 -380 814 -667 1325 -755 l123 -22 -133 -26 c-302 -60
-569 -170 -819 -335 -143 -96 -242 -179 -382 -324 -126 -129 -128 -131 -109
-83 28 70 79 281 96 397 57 386 3 808 -151 1169 -20 44 -31 77 -26 71 4 -5 39
-47 76 -92z m343 46 c271 -69 546 -203 763 -372 94 -73 206 -175 245 -223 l35
-42 -110 23 c-390 83 -767 291 -1050 580 l-75 76 40 -7 c22 -3 91 -19 152 -35z
m3780 -272 c324 -256 737 -428 1145 -478 67 -8 96 -15 91 -23 -108 -184 -323
-422 -511 -564 -249 -190 -553 -327 -855 -386 -144 -28 -207 -37 -207 -27 0 4
18 51 40 104 195 477 211 1027 46 1507 -24 69 -46 132 -50 142 -4 9 46 -37
111 -101 65 -65 150 -143 190 -174z m-439 146 c85 -231 122 -438 122 -702 0
-188 -15 -324 -55 -481 -24 -98 -77 -256 -100 -300 l-13 -24 -17 39 c-65 152
-125 384 -146 565 -16 144 -6 423 20 566 32 171 118 444 141 444 4 0 26 -48
48 -107z m-7665 -65 c78 -234 102 -411 94 -691 -4 -163 -10 -225 -31 -324 -43
-203 -129 -450 -147 -421 -5 7 -27 67 -48 133 -128 391 -130 821 -5 1216 48
152 83 229 94 209 4 -8 24 -63 43 -122z m3848 -123 c50 -167 70 -302 76 -501
8 -263 -18 -451 -94 -689 -41 -127 -38 -129 -97 47 -137 411 -131 912 15 1303
l22 58 24 -59 c13 -32 37 -104 54 -159z m-3381 -86 c164 -132 393 -262 605
-345 96 -37 319 -100 410 -116 11 -2 -34 -16 -100 -32 -175 -42 -331 -98 -490
-175 -317 -155 -558 -350 -794 -641 -14 -17 -7 10 25 90 155 395 192 819 109
1237 -14 67 -36 157 -49 199 l-25 77 122 -121 c67 -66 151 -144 187 -173z
m6904 244 c-69 -224 -97 -409 -97 -658 0 -225 14 -339 67 -547 l32 -126 -90
81 c-245 221 -519 383 -816 481 -130 43 -353 96 -405 96 -47 0 -25 17 30 24
91 10 318 73 441 121 295 115 573 295 779 504 38 39 70 71 72 71 1 0 -5 -21
-13 -47z m-7679 -79 c-71 -227 -100 -456 -92 -718 8 -272 58 -510 155 -748
l40 -97 -52 5 c-590 60 -1132 357 -1470 806 l-58 77 21 29 c19 27 29 30 113
41 495 63 959 287 1308 632 30 30 56 54 57 54 2 -1 -9 -37 -22 -81z m3825 -85
c-55 -227 -74 -503 -49 -727 18 -166 70 -399 117 -521 3 -9 -34 24 -83 73
-300 297 -686 510 -1090 601 -66 15 -121 28 -122 29 -2 1 28 8 65 16 403 78
845 312 1121 594 36 36 66 64 68 62 2 -2 -10 -59 -27 -127z m6013 -707 c140
-292 207 -615 194 -932 -13 -293 -72 -533 -199 -802 l-41 -88 -58 0 c-32 0
-111 7 -176 15 -371 49 -713 190 -1012 420 -117 90 -305 280 -391 395 l-62 85
48 8 c378 62 656 161 931 330 246 153 503 397 650 618 25 38 49 69 53 69 4 0
32 -53 63 -118z m-3365 2 c360 -71 690 -237 981 -494 84 -74 226 -228 218
-237 -3 -2 -56 3 -119 12 -470 69 -901 294 -1227 642 -50 53 -91 101 -91 106
0 11 86 1 238 -29z m-899 -88 c-270 -262 -632 -457 -991 -535 l-87 -19 24 32
c14 18 67 70 119 115 269 238 561 392 906 480 136 35 137 32 29 -73z m-3767 7
c-283 -317 -691 -556 -1102 -644 -55 -11 -105 -19 -111 -17 -18 6 214 235 319
316 246 188 521 319 815 387 149 35 148 35 79 -42z m935 27 c218 -57 438 -156
635 -287 89 -59 286 -221 332 -272 19 -21 19 -21 0 -21 -10 0 -62 11 -114 24
-278 71 -540 200 -767 374 -118 92 -243 211 -221 212 9 0 70 -14 135 -30z
m-4533 -90 c-151 -401 -176 -877 -68 -1299 19 -73 56 -190 84 -259 l49 -125
-107 6 c-503 30 -1025 279 -1372 655 -75 82 -200 240 -200 253 0 4 33 9 73 13
413 39 813 193 1151 444 107 80 306 268 377 357 24 30 44 53 46 52 1 -2 -14
-46 -33 -97z m7600 -37 c-85 -255 -124 -562 -104 -822 14 -195 49 -380 95
-510 8 -24 15 -46 15 -49 0 -3 -39 33 -87 79 -188 180 -358 301 -584 413 -219
109 -506 196 -729 222 l-65 8 115 17 c496 76 972 324 1301 678 46 50 84 90 85
91 0 0 -19 -57 -42 -127z m-7314 46 c75 -96 249 -263 362 -347 345 -260 688
-397 1141 -457 l47 -6 -47 -62 c-321 -419 -797 -706 -1313 -791 -52 -8 -122
-18 -156 -22 l-61 -6 -42 97 c-99 225 -152 436 -173 683 -24 297 30 626 153
924 13 32 26 58 29 57 3 0 30 -32 60 -70z m3810 -140 c77 -230 105 -430 97
-694 -6 -186 -20 -286 -63 -453 -30 -116 -124 -356 -135 -345 -13 14 -68 159
-98 262 -56 186 -75 332 -75 561 0 224 12 321 64 515 30 114 59 198 105 300
l26 60 20 -45 c11 -25 38 -97 59 -161z m-337 33 c-80 -238 -113 -436 -113
-697 0 -250 28 -439 96 -656 29 -92 49 -142 111 -286 5 -13 -14 -12 -187 8
-353 41 -749 211 -1040 446 -149 120 -410 411 -410 457 0 21 3 22 135 41 227
32 468 104 669 200 263 126 539 332 711 533 39 45 70 82 71 82 0 0 -19 -58
-43 -128z m651 -49 c341 -293 744 -476 1181 -537 l90 -12 -110 -17 c-462 -72
-900 -286 -1216 -595 l-67 -64 23 96 c94 387 80 805 -40 1175 -19 60 -35 111
-35 115 0 4 14 -10 32 -30 17 -20 82 -79 142 -131z m3415 111 c62 -140 119
-368 142 -564 15 -130 7 -400 -16 -525 -18 -105 -66 -289 -94 -360 l-19 -50
-17 40 c-35 82 -94 273 -113 370 -59 286 -54 605 14 880 16 66 76 255 80 255
2 0 12 -20 23 -46z m4330 -228 c334 -248 719 -399 1124 -439 l119 -12 -59 -83
c-299 -418 -716 -702 -1205 -822 -117 -29 -338 -64 -346 -55 -2 2 16 53 41
112 127 303 173 558 164 912 -6 239 -26 369 -94 596 -3 11 29 -13 75 -57 45
-43 126 -111 181 -152z m-3856 -65 c330 -243 716 -390 1130 -432 64 -7 117
-15 117 -18 0 -3 -27 -42 -60 -86 -292 -389 -734 -673 -1212 -779 -116 -25
-296 -51 -304 -44 -2 3 10 38 26 79 107 259 171 629 155 894 -12 194 -52 423
-100 576 -5 15 19 -1 74 -50 45 -39 123 -102 174 -140z m-1928 -582 c444 -93
871 -353 1171 -713 l49 -59 -65 7 c-167 18 -429 94 -604 175 -262 121 -532
327 -711 541 -36 43 -65 80 -65 82 0 7 115 -10 225 -33z m-725 24 c0 -3 -33
-47 -74 -97 -300 -367 -731 -626 -1199 -721 -68 -14 -132 -25 -141 -25 -42 0
220 287 374 410 267 212 599 364 934 425 85 15 106 17 106 8z m4133 -233 c50
-125 85 -252 112 -400 23 -127 31 -408 16 -540 -23 -203 -83 -426 -162 -600
l-38 -85 -53 -3 c-29 -2 -98 2 -153 8 -395 45 -783 209 -1088 458 -93 77 -268
258 -336 347 l-52 70 137 22 c600 99 1119 409 1467 876 l51 69 27 -54 c14 -29
47 -105 72 -168z m-7859 109 c-56 -110 -130 -370 -160 -564 -23 -150 -23 -441
0 -600 23 -159 75 -358 130 -496 24 -63 43 -115 42 -116 -2 -2 -54 4 -116 12
-368 52 -729 210 -1026 448 -168 136 -447 459 -412 478 7 3 40 10 73 13 168
20 448 102 627 185 292 134 605 375 797 614 58 71 73 80 45 26z m247 -56 c108
-144 328 -348 497 -461 321 -216 635 -332 1026 -380 l136 -17 -66 -85 c-90
-114 -249 -270 -365 -357 -345 -259 -718 -395 -1170 -428 l-86 -6 -40 88
c-194 419 -235 891 -116 1348 27 107 121 355 133 355 4 0 27 -26 51 -57z
m3514 -135 c-74 -234 -100 -433 -92 -712 9 -316 67 -572 191 -841 20 -43 36
-79 36 -81 0 -5 -110 5 -230 22 -528 73 -1036 371 -1356 797 l-77 101 94 12
c475 61 921 274 1276 608 48 46 110 111 138 144 27 34 50 60 52 59 1 -2 -13
-50 -32 -109z m309 -102 c60 -196 80 -342 80 -576 0 -213 -12 -313 -55 -485
-23 -92 -77 -256 -89 -268 -8 -9 -58 120 -94 245 -96 335 -98 709 -6 1055 26
99 38 134 75 228 6 17 11 12 32 -34 13 -29 39 -103 57 -165z m436 -100 c241
-182 489 -305 770 -382 131 -36 337 -74 405 -74 71 0 71 -9 8 -98 -311 -434
-769 -732 -1287 -837 -116 -23 -286 -43 -286 -33 0 2 18 45 39 95 78 178 136
397 161 603 15 127 12 412 -6 542 -18 132 -52 283 -88 386 l-25 73 107 -102
c59 -55 150 -134 202 -173z m3831 -2 c320 -238 709 -393 1094 -435 61 -7 112
-14 114 -15 9 -8 -121 -167 -213 -263 -346 -356 -776 -564 -1295 -626 -63 -7
-62 -21 -2 138 49 128 94 299 117 452 23 154 23 451 0 610 -16 106 -61 305
-82 360 -4 11 33 -18 82 -64 49 -47 132 -117 185 -157z m-2386 -789 c84 -224
125 -454 125 -700 0 -319 -60 -587 -195 -872 l-54 -113 -52 0 c-128 0 -411 58
-579 120 -203 74 -433 204 -605 343 -98 79 -263 248 -334 342 l-52 70 137 22
c596 98 1108 408 1463 886 l65 88 22 -43 c12 -24 38 -88 59 -143z m-3748 29
c87 -111 289 -306 412 -398 302 -224 658 -372 1017 -421 65 -9 131 -20 146
-23 l26 -7 -56 -75 c-76 -100 -248 -277 -347 -357 -252 -203 -549 -347 -865
-417 -115 -25 -257 -46 -316 -46 -29 0 -33 5 -86 113 -203 409 -262 843 -177
1287 21 107 89 324 129 414 22 49 23 49 39 29 9 -11 44 -56 78 -99z m4252
-308 c246 -183 518 -313 811 -386 123 -31 301 -60 369 -60 26 0 41 -4 41 -12
-1 -16 -94 -141 -184 -247 -305 -357 -790 -618 -1275 -685 -139 -20 -195 -21
-188 -4 3 7 23 54 45 103 198 450 233 965 99 1452 l-33 122 108 -105 c60 -57
153 -138 207 -178z m-4649 92 c-54 -227 -75 -529 -51 -738 28 -239 98 -496
190 -694 22 -49 41 -90 41 -92 0 -9 -111 -3 -209 11 -493 72 -943 312 -1267
676 -78 88 -189 237 -182 244 2 3 49 9 104 15 506 54 936 250 1334 608 30 28
56 49 57 48 1 0 -7 -36 -17 -78z m2237 -697 c104 -159 309 -376 481 -509 316
-243 739 -416 1120 -457 34 -4 62 -10 62 -14 0 -18 -144 -187 -235 -277 -329
-323 -746 -524 -1215 -585 -120 -16 -408 -15 -520 0 -493 70 -916 281 -1246
622 -73 76 -186 210 -181 215 2 2 49 10 104 19 238 35 459 105 673 211 250
125 441 264 628 459 94 97 224 259 268 335 10 16 21 30 24 30 3 0 19 -22 37
-49z"/>
</g>
</svg>
